Genre:Adventure | Comedy | Family | Fantasy
Language: English  http://www.imdb.com/title/tt1373149/
Source:DVD

Complete name :Adventures of a Teenage Dragonslayer 2010 DvDRip H264 Feel-Free
Format : MPEG-4
Format profile : Base Media
Codec ID : isom
File size : 678 MiB
Duration : 1h 28mn
Overall bit rate : 1 072 Kbps
Video #2
Codec ID : avc1
Codec ID/Info : Advanced Video Coding
Duration : 1h 28mn
Bit rate mode : Variable
Bit rate : 907 Kbps
Width : 720 pixels
Height : 384 pixels
Display aspect ratio : 1.875
Frame rate mode : Constant
Frame rate : 25.000 fps
Resolution : 24 bits
Colorimetry : 4:2:0
Scan type : Progressive
Bits/(Pixel*Frame) : 0.131
Stream size : 574 MiB (85%)
Audio #1
ID : 1
Format : AAC
Format/Info : Advanced Audio Codec
Format version : Version 4
Format profile : LC
Format settings, SBR : No
Codec ID : 40
Duration : 1h 28mn
Bit rate mode : Constant
Bit rate : 160 Kbps
Channel(s) : 2 channels
Channel positions : L R
Sampling rate : 48.0 KHz
Resolution : 16 bits
Stream size : 101 MiB (15%)

Plot:
Arthur unwittingly discovers the secret to stopping an evil dragon who threatens to destroy all civilization